HIERARCHY
ROOT Hips
{
	OFFSET 0.000000 83.214638 0.000000
	CHANNELS 6 Xposition Yposition Zposition Xrotation Yrotation Zrotation
	JOINT Pelvis
	{
		OFFSET 0.000000 0.000000 0.000000
		CHANNELS 3 Xrotation Yrotation Zrotation
		JOINT LeftUpLeg
		{
			OFFSET 8.479700 -4.795502 -0.379100
			CHANNELS 3 Xrotation Yrotation Zrotation
			JOINT LeftLeg
			{
				OFFSET 0.024144 -32.555107 0.112900
				CHANNELS 3 Xrotation Yrotation Zrotation
				JOINT LeftFoot
				{
					OFFSET -0.024144 -32.638630 -3.012600
					CHANNELS 3 Xrotation Yrotation Zrotation
					JOINT LeftToeBase
					{
						OFFSET 0.970200 -13.225400 11.864200
						CHANNELS 3 Xrotation Yrotation Zrotation
						End Site
						{
							OFFSET 0.000000 12.319262 0.000000
						}
					}
					JOINT LFootTongue
					{
						OFFSET 1.142400 -1.059800 6.665200
						CHANNELS 3 Xrotation Yrotation Zrotation
						End Site
						{
							OFFSET 0.000000 12.319262 0.000000
						}
					}
				}
				JOINT LeftPantLeg
				{
					OFFSET 0.918482 -16.533964 -2.284700
					CHANNELS 3 Xrotation Yrotation Zrotation
					End Site
					{
						OFFSET 0.350399 24.744368 0.000000
					}
				}
			}
		}
		JOINT RightUpLeg
		{
			OFFSET -8.479700 -4.795502 -0.379100
			CHANNELS 3 Xrotation Yrotation Zrotation
			JOINT RightLeg
			{
				OFFSET -0.023144 -32.555092 0.112900
				CHANNELS 3 Xrotation Yrotation Zrotation
				JOINT RightFoot
				{
					OFFSET 0.023144 -32.638641 -3.012700
					CHANNELS 3 Xrotation Yrotation Zrotation
					JOINT RightToeBase
					{
						OFFSET -0.970200 -13.225400 11.864200
						CHANNELS 3 Xrotation Yrotation Zrotation
						End Site
						{
							OFFSET 0.000000 12.319244 0.000000
						}
					}
					JOINT RFootTongue
					{
						OFFSET -1.142200 -1.059800 6.665200
						CHANNELS 3 Xrotation Yrotation Zrotation
						End Site
						{
							OFFSET 0.000000 12.319243 0.000000
						}
					}
				}
				JOINT RightPantLeg
				{
					OFFSET -0.919482 -16.533978 -2.284800
					CHANNELS 3 Xrotation Yrotation Zrotation
					End Site
					{
						OFFSET -0.350400 24.744419 0.000000
					}
				}
			}
		}
	}
	JOINT Spine
	{
		OFFSET 0.000000 7.722000 1.166200
		CHANNELS 3 Xrotation Yrotation Zrotation
		JOINT Spine1
		{
			OFFSET 0.000000 12.024101 0.248800
			CHANNELS 3 Xrotation Yrotation Zrotation
			JOINT Spine2
			{
				OFFSET 0.000000 11.502998 -0.491200
				CHANNELS 3 Xrotation Yrotation Zrotation
				JOINT Neck
				{
					OFFSET 0.000000 18.430702 -3.123100
					CHANNELS 3 Xrotation Yrotation Zrotation
					JOINT Head
					{
						OFFSET 0.000000 9.051102 1.034000
						CHANNELS 3 Xrotation Yrotation Zrotation
						JOINT HairB
						{
							OFFSET 0.208400 24.786102 24.822300
							CHANNELS 3 Xrotation Yrotation Zrotation
							End Site
							{
								OFFSET 0.000000 32.263779 0.000000
							}
						}
						JOINT HairA
						{
							OFFSET -7.081100 24.428299 23.196600
							CHANNELS 3 Xrotation Yrotation Zrotation
							End Site
							{
								OFFSET 0.000000 32.263779 0.000000
							}
						}
						JOINT Hat
						{
							OFFSET 16.728800 15.048294 -15.439601
							CHANNELS 3 Xrotation Yrotation Zrotation
							End Site
							{
								OFFSET 0.000000 32.263779 0.000000
							}
						}
					}
				}
				JOINT LeftShoulder
				{
					OFFSET 6.197800 13.665199 -4.064700
					CHANNELS 3 Xrotation Yrotation Zrotation
					JOINT LeftArm
					{
						OFFSET 7.778100 -0.187103 -1.709300
						CHANNELS 3 Xrotation Yrotation Zrotation
						JOINT LeftForeArm
						{
							OFFSET 22.049376 0.000000 0.000000
							CHANNELS 3 Xrotation Yrotation Zrotation
							JOINT LeftHand
							{
								OFFSET 23.009392 0.000000 0.000000
								CHANNELS 3 Xrotation Yrotation Zrotation
								JOINT LeftHandThumb1
								{
									OFFSET 3.507191 -2.063065 3.133727
									CHANNELS 3 Xrotation Yrotation Zrotation
									JOINT LeftHandThumb2
									{
										OFFSET 3.101337 -1.790558 1.790558
										CHANNELS 3 Xrotation Yrotation Zrotation
										JOINT LeftHandThumb3
										{
											OFFSET 3.058640 -1.765907 1.765906
											CHANNELS 3 Xrotation Yrotation Zrotation
											End Site
											{
												OFFSET -0.415260 3.926476 -0.049563
											}
										}
									}
								}
								JOINT LeftHandIndex1
								{
									OFFSET 11.334419 -0.901459 3.706815
									CHANNELS 3 Xrotation Yrotation Zrotation
									JOINT LeftHandIndex2
									{
										OFFSET 3.283112 0.000000 0.000000
										CHANNELS 3 Xrotation Yrotation Zrotation
										JOINT LeftHandIndex3
										{
											OFFSET 3.323853 0.000000 0.000000
											CHANNELS 3 Xrotation Yrotation Zrotation
											End Site
											{
												OFFSET -1.135597 3.097809 0.402452
											}
										}
									}
								}
								JOINT LeftHandMiddle1
								{
									OFFSET 11.335861 0.000000 0.000000
									CHANNELS 3 Xrotation Yrotation Zrotation
									JOINT LeftHandMiddle2
									{
										OFFSET 3.410492 0.000000 0.000000
										CHANNELS 3 Xrotation Yrotation Zrotation
										JOINT LeftHandMiddle3
										{
											OFFSET 3.312172 0.000000 0.000000
											CHANNELS 3 Xrotation Yrotation Zrotation
											End Site
											{
												OFFSET -1.150200 3.080154 0.400270
											}
										}
									}
								}
								JOINT LeftHandRing1
								{
									OFFSET 11.514786 -0.013176 -3.003090
									CHANNELS 3 Xrotation Yrotation Zrotation
									JOINT LeftHandRing2
									{
										OFFSET 3.053307 0.000000 0.000000
										CHANNELS 3 Xrotation Yrotation Zrotation
										JOINT LeftHandRing3
										{
											OFFSET 3.295807 0.000000 0.000000
											CHANNELS 3 Xrotation Yrotation Zrotation
											End Site
											{
												OFFSET -1.281006 3.013344 0.375733
											}
										}
									}
								}
								JOINT LeftHandPinky1
								{
									OFFSET 10.518692 -0.960396 -5.730441
									CHANNELS 3 Xrotation Yrotation Zrotation
									JOINT LeftHandPinky2
									{
										OFFSET 2.861649 0.000000 0.000000
										CHANNELS 3 Xrotation Yrotation Zrotation
										JOINT LeftHandPinky3
										{
											OFFSET 2.863380 0.000000 0.000000
											CHANNELS 3 Xrotation Yrotation Zrotation
											End Site
											{
												OFFSET -0.843597 2.711159 0.369971
											}
										}
									}
								}
							}
							JOINT LSleeve
							{
								OFFSET 6.676277 -0.344902 -1.011730
								CHANNELS 3 Xrotation Yrotation Zrotation
								End Site
								{
									OFFSET 0.000000 14.885353 0.000000
								}
							}
						}
					}
				}
				JOINT RightShoulder
				{
					OFFSET -6.197800 13.665199 -4.064700
					CHANNELS 3 Xrotation Yrotation Zrotation
					JOINT RightArm
					{
						OFFSET -7.778100 -0.187103 -1.709300
						CHANNELS 3 Xrotation Yrotation Zrotation
						JOINT RightForeArm
						{
							OFFSET -22.049376 0.000000 0.000000
							CHANNELS 3 Xrotation Yrotation Zrotation
							JOINT RightHand
							{
								OFFSET -23.009392 0.000000 0.000000
								CHANNELS 3 Xrotation Yrotation Zrotation
								JOINT RightHandThumb1
								{
									OFFSET -3.507191 -2.063065 3.133727
									CHANNELS 3 Xrotation Yrotation Zrotation
									JOINT RightHandThumb2
									{
										OFFSET -3.101337 -1.790558 1.790558
										CHANNELS 3 Xrotation Yrotation Zrotation
										JOINT RightHandThumb3
										{
											OFFSET -3.058640 -1.765907 1.765906
											CHANNELS 3 Xrotation Yrotation Zrotation
											End Site
											{
												OFFSET 0.415260 3.926476 -0.049563
											}
										}
									}
								}
								JOINT RightHandIndex1
								{
									OFFSET -11.334419 -0.901459 3.706815
									CHANNELS 3 Xrotation Yrotation Zrotation
									JOINT RightHandIndex2
									{
										OFFSET -3.283112 0.000000 0.000000
										CHANNELS 3 Xrotation Yrotation Zrotation
										JOINT RightHandIndex3
										{
											OFFSET -3.323853 0.000000 0.000000
											CHANNELS 3 Xrotation Yrotation Zrotation
											End Site
											{
												OFFSET 1.135597 3.097809 0.402452
											}
										}
									}
								}
								JOINT RightHandMiddle1
								{
									OFFSET -11.335861 0.000000 0.000000
									CHANNELS 3 Xrotation Yrotation Zrotation
									JOINT RightHandMiddle2
									{
										OFFSET -3.410492 0.000000 0.000000
										CHANNELS 3 Xrotation Yrotation Zrotation
										JOINT RightHandMiddle3
										{
											OFFSET -3.312172 0.000000 0.000000
											CHANNELS 3 Xrotation Yrotation Zrotation
											End Site
											{
												OFFSET 1.150200 3.080154 0.400270
											}
										}
									}
								}
								JOINT RightHandRing1
								{
									OFFSET -11.514786 -0.013176 -3.003090
									CHANNELS 3 Xrotation Yrotation Zrotation
									JOINT RightHandRing2
									{
										OFFSET -3.053307 0.000000 0.000000
										CHANNELS 3 Xrotation Yrotation Zrotation
										JOINT RightHandRing3
										{
											OFFSET -3.295807 0.000000 0.000000
											CHANNELS 3 Xrotation Yrotation Zrotation
											End Site
											{
												OFFSET 1.281006 3.013344 0.375733
											}
										}
									}
								}
								JOINT RightHandPinky1
								{
									OFFSET -10.518692 -0.960396 -5.730441
									CHANNELS 3 Xrotation Yrotation Zrotation
									JOINT RightHandPinky2
									{
										OFFSET -2.861649 0.000000 0.000000
										CHANNELS 3 Xrotation Yrotation Zrotation
										JOINT RightHandPinky3
										{
											OFFSET -2.863380 0.000000 0.000000
											CHANNELS 3 Xrotation Yrotation Zrotation
											End Site
											{
												OFFSET 0.843597 2.711159 0.369971
											}
										}
									}
								}
							}
							JOINT RSleeve
							{
								OFFSET -6.676277 -0.344902 -1.011730
								CHANNELS 3 Xrotation Yrotation Zrotation
								End Site
								{
									OFFSET 0.000000 14.885353 0.000000
								}
							}
						}
					}
				}
				JOINT Backpack
				{
					OFFSET 0.000000 -2.471497 36.677502
					CHANNELS 3 Xrotation Yrotation Zrotation
					End Site
					{
						OFFSET 0.000000 20.427315 0.000000
					}
				}
				JOINT Hood
				{
					OFFSET 0.000000 18.754097 -10.431000
					CHANNELS 3 Xrotation Yrotation Zrotation
					JOINT Hood1
					{
						OFFSET 0.000000 -5.011002 -7.685901
						CHANNELS 3 Xrotation Yrotation Zrotation
						End Site
						{
							OFFSET 0.000000 9.175140 0.000000
						}
					}
				}
				JOINT LHoodieString
				{
					OFFSET 5.250500 16.397697 3.089900
					CHANNELS 3 Xrotation Yrotation Zrotation
					JOINT LHoodieString1
					{
						OFFSET 0.257700 -6.364304 3.694600
						CHANNELS 3 Xrotation Yrotation Zrotation
						JOINT LHoodieString2
						{
							OFFSET 0.000000 -9.643799 2.679100
							CHANNELS 3 Xrotation Yrotation Zrotation
							End Site
							{
								OFFSET 0.000000 10.009018 0.000000
							}
						}
					}
				}
				JOINT RHoodieString
				{
					OFFSET -5.250500 16.397697 3.089900
					CHANNELS 3 Xrotation Yrotation Zrotation
					JOINT RHoodieString1
					{
						OFFSET -0.257700 -6.364304 3.694600
						CHANNELS 3 Xrotation Yrotation Zrotation
						JOINT RHoodieString2
						{
							OFFSET 0.000000 -9.643799 2.679100
							CHANNELS 3 Xrotation Yrotation Zrotation
							End Site
							{
								OFFSET 0.000000 10.009018 0.000000
							}
						}
					}
				}
			}
			JOINT LBackpack_Strap
			{
				OFFSET 15.223200 -7.719803 -6.610900
				CHANNELS 3 Xrotation Yrotation Zrotation
				End Site
				{
					OFFSET 0.000000 16.040596 0.000000
				}
			}
			JOINT RBackpack_Strap
			{
				OFFSET -15.223000 -7.719803 -6.610900
				CHANNELS 3 Xrotation Yrotation Zrotation
				End Site
				{
					OFFSET 0.000000 16.040596 0.000000
				}
			}
		}
	}
	JOINT BoyFacialAnim_Joint
	{
		OFFSET 1.000000 -82.208099 -1.550900
		CHANNELS 3 Xrotation Yrotation Zrotation
		End Site
		{
			OFFSET 0.000000 30.012791 0.000000
		}
	}
}
MOTION
Frames: 4
Frame Time: 0.033333
0.019178 82.451057 0.245780 -3.758911 -5.223209 -3.513479 0.000000 -0.000000 -0.000000 -11.794243 14.483046 10.865570 13.105643 1.996121 4.173007 1.435837 0.528863 -7.648535 0.000000 0.000001 -0.000000 0.000000 0.000001 -0.000000 -0.000000 -0.000001 0.000000 1.331675 -10.345131 3.334651 5.903984 -9.739491 -3.276400 -2.943116 -1.641283 3.131579 -0.000000 -0.000000 -0.000000 -0.000000 -0.000000 -0.000000 0.000000 0.000002 0.000000 3.302065 1.534299 2.486340 1.140741 0.341357 1.556443 1.117078 0.354624 1.559136 5.629578 -0.078962 0.451856 -7.563054 1.375837 -0.081054 -0.000000 0.000000 0.000000 -0.000000 0.000000 0.000000 -0.000000 0.000000 0.000000 1.048060 -17.441882 -12.319437 3.910871 -19.979026 -69.769781 -0.000009 -1.459366 0.000008 -33.230421 -1.364824 -6.186660 -0.654134 2.160349 4.829403 11.855047 25.421715 17.057351 0.000002 0.000002 0.000001 0.019866 -0.969579 -7.593509 0.267873 1.752898 -17.375711 0.000002 0.000000 -0.000000 -0.076311 2.665783 -15.696813 0.268780 1.755807 -17.405504 0.000002 -0.000000 0.000000 0.136909 3.641773 -21.133503 0.386624 2.094791 -20.911913 -0.000002 -0.000000 -0.000000 0.927739 5.555912 -27.128019 0.268794 1.755841 -17.405885 0.000000 0.000000 -0.000000 0.000002 -0.000000 -0.000000 1.211979 15.346016 14.707443 13.158857 27.555126 58.785157 0.000012 6.693743 0.000031 -20.178474 -0.520532 6.790962 -1.675164 -0.175524 -4.215569 12.712499 -29.825701 -16.138776 -0.000003 0.000002 0.000001 0.039406 1.262399 6.823808 0.213734 -1.396037 17.407027 0.000001 0.000001 0.000004 -0.136225 -2.205109 14.998884 0.214445 -1.398340 17.436843 -0.000000 0.000001 -0.000000 0.030611 -3.075753 20.451050 0.308437 -1.668286 20.948549 -0.000001 0.000000 0.000000 0.747429 -4.885954 26.473687 0.214453 -1.398384 17.437224 0.000002 -0.000000 -0.000003 -0.000001 0.000001 0.000000 0.000000 0.000000 -0.000000 0.000000 0.000000 -0.000000 0.000000 0.000000 -0.000000 0.000000 0.000000 -0.000000 0.000000 0.000000 -0.000000 0.000000 0.000000 -0.000000 0.000000 0.000000 -0.000000 0.000000 0.000000 -0.000000 0.000000 0.000000 -0.000000 0.000000 -0.000000 0.000000 0.000000 -0.000000 0.000000 0.000000 -0.000000 -0.000000 
0.012693 82.450760 0.232879 -3.759048 -5.245791 -3.514100 0.000000 -0.000000 -0.000000 -11.785713 14.482960 10.870620 13.082503 2.016633 4.173375 1.443262 0.529064 -7.649102 -0.000000 0.000000 0.000000 -0.000000 0.000000 0.000000 -0.000000 -0.000000 0.000000 1.312871 -10.345999 3.339073 5.930278 -9.706632 -3.252688 -2.953350 -1.637718 3.098937 0.000000 -0.000000 0.000000 0.000000 -0.000000 0.000000 -0.000000 0.000001 0.000000 3.302089 1.534304 2.485471 1.140741 0.341358 1.556443 1.117079 0.354624 1.559137 5.629578 -0.089510 0.451856 -7.598173 1.326072 -0.104963 -0.000000 -0.000000 -0.000000 -0.000000 -0.000000 -0.000000 -0.000000 -0.000000 -0.000000 1.048061 -17.441892 -12.319444 3.922007 -19.975015 -69.768320 0.000002 -1.459359 0.000005 -33.230428 -1.364379 -6.187341 -0.654135 2.160348 4.829361 11.855042 25.421739 17.057404 0.000004 -0.000001 0.000002 0.019883 -0.969696 -7.592868 0.267869 1.752898 -17.375737 -0.000003 -0.000001 -0.000005 -0.076307 2.665854 -15.697583 0.268785 1.755808 -17.405511 0.000001 -0.000000 -0.000002 0.136188 3.638523 -21.101762 0.385701 2.092395 -20.886845 -0.000001 0.000000 -0.000004 0.927633 5.555695 -27.128758 0.268850 1.756017 -17.407620 -0.000000 0.000000 -0.000000 0.000001 -0.000000 0.000000 1.215260 15.333963 14.706577 13.157066 27.573040 58.774304 -0.000003 6.684346 -0.000006 -20.178474 -0.520538 6.790958 -1.675163 -0.175522 -4.215593 12.712511 -29.825688 -16.138747 0.000001 0.000003 0.000003 0.039437 1.262421 6.823456 0.213714 -1.396028 17.407075 -0.000002 -0.000000 0.000004 -0.136229 -2.205076 14.998588 0.214443 -1.398340 17.436850 -0.000001 0.000001 0.000002 0.030607 -3.075730 20.450672 0.308436 -1.668286 20.948566 -0.000004 0.000001 0.000001 0.747422 -4.885962 26.473658 0.214457 -1.398380 17.437251 0.000001 -0.000001 -0.000003 0.000002 0.000000 -0.000001 -0.000000 -0.000000 0.000000 -0.000000 -0.000000 0.000000 -0.000000 -0.000000 0.000000 -0.000000 -0.000000 0.000000 -0.000000 -0.000000 0.000000 -0.000000 -0.000000 0.000000 -0.000000 -0.000000 0.000000 -0.000000 -0.000000 0.000000 -0.000000 -0.000000 0.000000 -0.000000 0.000000 -0.000000 -0.000000 0.000000 -0.000000 0.000000 -0.000000 -0.000000 
0.006130 82.450172 0.217591 -3.759283 -5.284154 -3.522251 0.000000 -0.000000 -0.000000 -11.779906 14.482492 10.886156 13.063487 2.051153 4.173852 1.449260 0.529389 -7.649796 0.000000 0.000000 -0.000000 0.000000 0.000000 0.000000 -0.000000 0.000000 0.000001 1.292371 -10.359980 3.333150 5.954234 -9.647430 -3.216726 -2.955006 -1.636488 3.067221 -0.000000 -0.000002 -0.000000 -0.000000 -0.000002 -0.000000 0.000000 0.000000 0.000000 3.302128 1.534304 2.483888 1.140741 0.341358 1.556443 1.117079 0.354623 1.559137 5.629578 -0.118288 0.439064 -7.640419 1.202379 -0.199224 -0.000000 -0.000000 -0.000000 -0.000000 -0.000000 -0.000000 -0.000000 -0.000000 -0.000000 1.051040 -17.441709 -12.309497 3.923560 -19.977163 -69.775034 -0.000000 -1.459366 -0.000003 -33.236056 -1.335692 -6.219245 -0.654151 2.160934 4.824329 11.854358 25.426166 17.058228 0.000000 -0.000000 -0.000000 0.078429 -0.948591 -7.366563 0.268255 1.754117 -17.388226 0.000001 -0.000000 -0.000002 -0.092244 2.617884 -15.799682 0.268113 1.753675 -17.383682 0.000001 0.000000 -0.000003 0.119984 3.591281 -20.987413 0.382518 2.084035 -20.799492 -0.000002 -0.000001 -0.000002 0.862737 5.474882 -26.735333 0.237734 1.653552 -16.361759 0.000000 0.000001 0.000002 -0.000000 -0.000000 0.000000 1.213441 15.331145 14.716348 13.167550 27.596194 58.743848 -0.000007 6.681478 0.000011 -20.161054 -0.517712 6.791900 -1.676025 -0.163526 -4.213260 12.712517 -29.825701 -16.138740 0.000001 -0.000001 0.000003 0.037078 1.259313 6.861436 0.213722 -1.396025 17.407043 -0.000001 0.000000 0.000004 -0.140649 -2.191542 15.032135 0.214453 -1.398347 17.436829 0.000002 0.000001 0.000004 0.030201 -3.073361 20.421700 0.308444 -1.668282 20.948556 -0.000001 0.000001 0.000002 0.752852 -4.896597 26.483819 0.214053 -1.397110 17.420831 0.000000 -0.000001 -0.000002 0.000004 0.000001 -0.000001 -0.000000 -0.000000 0.000000 -0.000000 -0.000000 0.000000 -0.000000 -0.000000 0.000000 -0.000000 -0.000000 0.000000 -0.000000 -0.000000 0.000000 -0.000000 -0.000000 0.000000 -0.000000 -0.000000 0.000000 -0.000000 -0.000000 0.000000 -0.000000 -0.000000 0.000000 -0.000000 0.000000 0.000000 -0.000000 0.000000 0.000000 0.000000 -0.000000 -0.000000 
-0.001562 82.448776 0.200117 -3.759686 -5.348489 -3.532474 0.000000 -0.000000 -0.000000 -11.775441 14.481478 10.909191 13.049243 2.106075 4.169460 1.456166 0.529876 -7.658317 -0.000000 -0.000001 -0.000000 -0.000000 -0.000001 -0.000000 -0.000000 0.000001 -0.000000 1.256185 -10.372322 3.322523 5.999894 -9.570979 -3.170975 -2.962657 -1.635082 3.028152 0.000000 0.000002 0.000000 0.000000 0.000002 0.000000 -0.000000 0.000000 0.000000 3.301094 1.534305 2.483089 1.140741 0.341357 1.556443 1.117079 0.354624 1.566151 5.629581 -0.173157 0.403090 -7.662577 0.970595 -0.412492 0.000000 -0.000000 0.000000 0.000000 -0.000000 0.000000 0.000000 -0.000000 0.000000 1.055659 -17.441441 -12.294091 3.941351 -20.004306 -69.771407 -0.000000 -1.469728 -0.000004 -33.286920 -1.240043 -6.311105 -0.654171 2.161503 4.819387 11.867575 25.453603 17.052501 0.000001 -0.000005 -0.000005 0.091739 -0.925647 -7.429113 0.268476 1.754825 -17.395476 -0.000001 0.000000 -0.000002 -0.101764 2.597765 -15.950727 0.268246 1.754099 -17.388021 0.000002 0.000000 0.000002 0.104791 3.545371 -20.855318 0.378844 2.074331 -20.698026 0.000001 -0.000001 0.000003 0.813764 5.409585 -26.338003 0.209017 1.552447 -15.335332 -0.000002 0.000000 -0.000002 -0.000000 0.000000 -0.000000 1.205547 15.348705 14.729607 13.194757 27.600385 58.696030 0.000004 6.715067 0.000016 -20.152190 -0.521887 6.808053 -1.676548 -0.156177 -4.211843 12.712523 -29.825691 -16.138736 0.000001 0.000004 0.000003 0.033596 1.269607 6.893805 0.213713 -1.396027 17.407034 -0.000005 0.000003 0.000002 -0.141721 -2.184747 15.001836 0.214050 -1.397074 17.420526 -0.000002 0.000001 -0.000000 0.035909 -3.087727 20.399296 0.308438 -1.668281 20.948578 -0.000001 0.000000 -0.000003 0.753300 -4.897203 26.495391 0.217984 -1.409565 17.581221 -0.000001 -0.000001 0.000000 -0.000001 -0.000000 0.000001 0.000000 -0.000000 -0.000000 0.000000 -0.000000 -0.000000 0.000000 -0.000000 -0.000000 0.000000 -0.000000 -0.000000 0.000000 -0.000000 -0.000000 -0.000000 -0.000000 -0.000000 0.000000 -0.000000 -0.000000 0.000000 -0.000000 -0.000000 -0.000000 -0.000000 -0.000000 -0.000000 0.000001 -0.000000 -0.000000 0.000001 -0.000000 0.000000 -0.000000 -0.000000 
